<svg width="147" height="36" viewBox="0 0 147 36" fill="none" xmlns="http://www.w3.org/2000/svg">
<g filter="url(#filter0_d_6601_165)">
<path d="M22.962 24.288H13.006L11.41 29H4.608L14.26 2.324H21.784L31.436 29H24.558L22.962 24.288ZM21.29 19.272L17.984 9.506L14.716 19.272H21.29ZM56.2616 7.796V29H49.7636V26.112C49.1049 27.0493 48.2056 27.8093 47.0656 28.392C45.9509 28.9493 44.7096 29.228 43.3416 29.228C41.7202 29.228 40.2889 28.8733 39.0476 28.164C37.8062 27.4293 36.8436 26.378 36.1596 25.01C35.4756 23.642 35.1336 22.0333 35.1336 20.184V7.796H41.5936V19.31C41.5936 20.7287 41.9609 21.8307 42.6956 22.616C43.4302 23.4013 44.4182 23.794 45.6596 23.794C46.9262 23.794 47.9269 23.4013 48.6616 22.616C49.3962 21.8307 49.7636 20.7287 49.7636 19.31V7.796H56.2616ZM68.377 11.33C69.137 10.1647 70.087 9.25267 71.227 8.594C72.367 7.91 73.6337 7.568 75.027 7.568V14.446H73.241C71.6197 14.446 70.4037 14.8007 69.593 15.51C68.7824 16.194 68.377 17.41 68.377 19.158V29H61.879V7.796H68.377V11.33ZM88.735 29.304C86.6576 29.304 84.783 28.8607 83.111 27.974C81.4643 27.0873 80.1596 25.8207 79.197 24.174C78.2596 22.5273 77.791 20.602 77.791 18.398C77.791 16.2193 78.2723 14.3067 79.235 12.66C80.1976 10.988 81.515 9.70867 83.187 8.822C84.859 7.93533 86.7336 7.492 88.811 7.492C90.8883 7.492 92.763 7.93533 94.435 8.822C96.107 9.70867 97.4243 10.988 98.387 12.66C99.3496 14.3067 99.831 16.2193 99.831 18.398C99.831 20.5767 99.337 22.502 98.349 24.174C97.3863 25.8207 96.0563 27.0873 94.359 27.974C92.687 28.8607 90.8123 29.304 88.735 29.304ZM88.735 23.68C89.9763 23.68 91.0276 23.224 91.889 22.312C92.7756 21.4 93.219 20.0953 93.219 18.398C93.219 16.7007 92.7883 15.396 91.927 14.484C91.091 13.572 90.0523 13.116 88.811 13.116C87.5443 13.116 86.493 13.572 85.657 14.484C84.821 15.3707 84.403 16.6753 84.403 18.398C84.403 20.0953 84.8083 21.4 85.619 22.312C86.455 23.224 87.4936 23.68 88.735 23.68ZM110.726 11.33C111.486 10.1647 112.436 9.25267 113.576 8.594C114.716 7.91 115.983 7.568 117.376 7.568V14.446H115.59C113.969 14.446 112.753 14.8007 111.942 15.51C111.132 16.194 110.726 17.41 110.726 19.158V29H104.228V7.796H110.726V11.33ZM120.14 18.36C120.14 16.1813 120.546 14.2687 121.356 12.622C122.192 10.9753 123.32 9.70867 124.738 8.822C126.157 7.93533 127.74 7.492 129.488 7.492C130.983 7.492 132.288 7.796 133.402 8.404C134.542 9.012 135.416 9.81 136.024 10.798V7.796H142.522V29H136.024V25.998C135.391 26.986 134.504 27.784 133.364 28.392C132.25 29 130.945 29.304 129.45 29.304C127.728 29.304 126.157 28.8607 124.738 27.974C123.32 27.062 122.192 25.7827 121.356 24.136C120.546 22.464 120.14 20.5387 120.14 18.36ZM136.024 18.398C136.024 16.7767 135.568 15.4973 134.656 14.56C133.77 13.6227 132.68 13.154 131.388 13.154C130.096 13.154 128.994 13.6227 128.082 14.56C127.196 15.472 126.752 16.7387 126.752 18.36C126.752 19.9813 127.196 21.2733 128.082 22.236C128.994 23.1733 130.096 23.642 131.388 23.642C132.68 23.642 133.77 23.1733 134.656 22.236C135.568 21.2987 136.024 20.0193 136.024 18.398Z" fill="white"/>
</g>
<defs>
<filter id="filter0_d_6601_165" x="0.608002" y="0.323997" width="145.914" height="34.98" filterUnits="userSpaceOnUse" color-interpolation-filters="sRGB">
<feFlood flood-opacity="0" result="BackgroundImageFix"/>
<feColorMatrix in="SourceAlpha" type="matrix" values="0 0 0 0 0 0 0 0 0 0 0 0 0 0 0 0 0 0 127 0" result="hardAlpha"/>
<feOffset dy="2"/>
<feGaussianBlur stdDeviation="2"/>
<feColorMatrix type="matrix" values="0 0 0 0 0 0 0 0 0 0 0 0 0 0 0 0 0 0 0.08 0"/>
<feBlend mode="normal" in2="BackgroundImageFix" result="effect1_dropShadow_6601_165"/>
<feBlend mode="normal" in="SourceGraphic" in2="effect1_dropShadow_6601_165" result="shape"/>
</filter>
</defs>
</svg>
